<svg xmlns="http://www.w3.org/2000/svg" viewBox="0 0 1400 900">
  <defs>
    <style>
      .title { font-size: 22px; font-weight: bold; fill: #2192B8; }
      .subtitle { font-size: 13px; fill: #666; }
      .device-label { font-size: 15px; font-weight: bold; fill: #333; }
      .screen { fill: #f5f5f5; stroke: #333; stroke-width: 2; }
      .table-header { fill: #2192B8; }
      .table-row { fill: white; stroke: #ddd; stroke-width: 1; }
      .table-row-alt { fill: #f9f9f9; stroke: #ddd; stroke-width: 1; }
      .text-header { fill: white; font-size: 10px; font-weight: bold; }
      .text-data { fill: #333; font-size: 9px; }
      .text-label { fill: #2192B8; font-size: 9px; font-weight: bold; }
      .card { fill: white; stroke: #ddd; stroke-width: 1; rx: 6; }
      .card-shadow { filter: drop-shadow(0 2px 4px rgba(0,0,0,0.1)); }
      .button { fill: #4CAF50; rx: 4; }
      .button-text { fill: white; font-size: 8px; font-weight: bold; }
      .annotation { font-size: 11px; fill: #FF5722; font-weight: bold; }
    </style>
  </defs>
  
  <!-- Titulo Principal -->
  <text x="700" y="35" class="title" text-anchor="middle">Comparativa de Tablas Responsive</text>
  <text x="700" y="55" class="subtitle" text-anchor="middle">Visualizacion de datos segun tamano de pantalla</text>
  
  <!-- LAPTOP/DESKTOP -->
  <g transform="translate(50, 90)">
    <text x="200" y="-10" class="device-label" text-anchor="middle">LAPTOP/DESKTOP (&gt;768px)</text>
    <rect x="0" y="0" width="400" height="280" class="screen" rx="8"/>
    
    <!-- Tabla tradicional -->
    <g transform="translate(10, 10)">
      <!-- Header -->
      <rect x="0" y="0" width="380" height="25" class="table-header" rx="4"/>
      <text x="10" y="16" class="text-header">Numero</text>
      <text x="80" y="16" class="text-header">Fecha</text>
      <text x="150" y="16" class="text-header">Cliente</text>
      <text x="250" y="16" class="text-header">Estado</text>
      <text x="320" y="16" class="text-header">Acciones</text>
      
      <!-- Fila 1 -->
      <rect x="0" y="25" width="380" height="30" class="table-row"/>
      <text x="10" y="43" class="text-data">SRV-2026-003</text>
      <text x="80" y="43" class="text-data">20/3/2026</text>
      <text x="150" y="43" class="text-data">OSWALDO BALTAZAR</text>
      <text x="250" y="43" class="text-data">Pendiente</text>
      <rect x="320" y="30" width="25" height="18" class="button"/>
      <text x="332" y="42" class="button-text" text-anchor="middle">Ver</text>
      <rect x="348" y="30" width="25" height="18" fill="#f44336" rx="4"/>
      <text x="360" y="42" class="button-text" text-anchor="middle">Del</text>
      
      <!-- Fila 2 -->
      <rect x="0" y="55" width="380" height="30" class="table-row-alt"/>
      <text x="10" y="73" class="text-data">SRV-2026-002</text>
      <text x="80" y="73" class="text-data">19/3/2026</text>
      <text x="150" y="73" class="text-data">MARIA GARCIA</text>
      <text x="250" y="73" class="text-data">Completado</text>
      <rect x="320" y="60" width="25" height="18" class="button"/>
      <text x="332" y="72" class="button-text" text-anchor="middle">Ver</text>
      <rect x="348" y="60" width="25" height="18" fill="#f44336" rx="4"/>
      <text x="360" y="72" class="button-text" text-anchor="middle">Del</text>
      
      <!-- Fila 3 -->
      <rect x="0" y="85" width="380" height="30" class="table-row"/>
      <text x="10" y="103" class="text-data">SRV-2026-001</text>
      <text x="80" y="103" class="text-data">18/3/2026</text>
      <text x="150" y="103" class="text-data">JUAN PEREZ</text>
      <text x="250" y="103" class="text-data">En reparacion</text>
      <rect x="320" y="90" width="25" height="18" class="button"/>
      <text x="332" y="102" class="button-text" text-anchor="middle">Ver</text>
      <rect x="348" y="90" width="25" height="18" fill="#f44336" rx="4"/>
      <text x="360" y="102" class="button-text" text-anchor="middle">Del</text>
    </g>
    
    <!-- Anotacion -->
    <text x="200" y="260" class="annotation" text-anchor="middle">Tabla tradicional con columnas</text>
  </g>
  
  <!-- TABLET -->
  <g transform="translate(500, 90)">
    <text x="175" y="-10" class="device-label" text-anchor="middle">TABLET (481-768px)</text>
    <rect x="0" y="0" width="350" height="280" class="screen" rx="8"/>
    
    <!-- Tabla compacta -->
    <g transform="translate(10, 10)">
      <!-- Header -->
      <rect x="0" y="0" width="330" height="25" class="table-header" rx="4"/>
      <text x="8" y="16" class="text-header">Numero</text>
      <text x="70" y="16" class="text-header">Cliente</text>
      <text x="180" y="16" class="text-header">Estado</text>
      <text x="260" y="16" class="text-header">Acciones</text>
      
      <!-- Fila 1 -->
      <rect x="0" y="25" width="330" height="35" class="table-row"/>
      <text x="8" y="38" class="text-data" style="font-weight: bold;">SRV-003</text>
      <text x="8" y="50" class="text-data" style="font-size: 8px; fill: #999;">20/3/2026</text>
      <text x="70" y="43" class="text-data">OSWALDO B.</text>
      <text x="180" y="43" class="text-data">Pendiente</text>
      <rect x="260" y="30" width="30" height="16" class="button"/>
      <text x="275" y="41" class="button-text" text-anchor="middle">Ver</text>
      <rect x="295" y="30" width="30" height="16" fill="#f44336" rx="4"/>
      <text x="310" y="41" class="button-text" text-anchor="middle">Del</text>
      
      <!-- Fila 2 -->
      <rect x="0" y="60" width="330" height="35" class="table-row-alt"/>
      <text x="8" y="73" class="text-data" style="font-weight: bold;">SRV-002</text>
      <text x="8" y="85" class="text-data" style="font-size: 8px; fill: #999;">19/3/2026</text>
      <text x="70" y="78" class="text-data">MARIA G.</text>
      <text x="180" y="78" class="text-data">Completado</text>
      <rect x="260" y="65" width="30" height="16" class="button"/>
      <text x="275" y="76" class="button-text" text-anchor="middle">Ver</text>
      <rect x="295" y="65" width="30" height="16" fill="#f44336" rx="4"/>
      <text x="310" y="76" class="button-text" text-anchor="middle">Del</text>
      
      <!-- Fila 3 -->
      <rect x="0" y="95" width="330" height="35" class="table-row"/>
      <text x="8" y="108" class="text-data" style="font-weight: bold;">SRV-001</text>
      <text x="8" y="120" class="text-data" style="font-size: 8px; fill: #999;">18/3/2026</text>
      <text x="70" y="113" class="text-data">JUAN P.</text>
      <text x="180" y="113" class="text-data">Reparacion</text>
      <rect x="260" y="100" width="30" height="16" class="button"/>
      <text x="275" y="111" class="button-text" text-anchor="middle">Ver</text>
      <rect x="295" y="100" width="30" height="16" fill="#f44336" rx="4"/>
      <text x="310" y="111" class="button-text" text-anchor="middle">Del</text>
    </g>
    
    <!-- Anotacion -->
    <text x="175" y="260" class="annotation" text-anchor="middle">Columnas reducidas + compacto</text>
  </g>
  
  <!-- MOVIL -->
  <g transform="translate(900, 90)">
    <text x="125" y="-10" class="device-label" text-anchor="middle">MOVIL (&lt;480px)</text>
    <rect x="0" y="0" width="250" height="280" class="screen" rx="8"/>
    
    <!-- Tarjetas -->
    <g transform="translate(10, 10)">
      <!-- Tarjeta 1 -->
      <rect x="0" y="0" width="230" height="80" class="card card-shadow"/>
      <text x="8" y="15" class="text-label">Numero:</text>
      <text x="220" y="15" class="text-data" text-anchor="end">SRV-2026-003</text>
      
      <text x="8" y="30" class="text-label">Fecha:</text>
      <text x="220" y="30" class="text-data" text-anchor="end">20/3/2026</text>
      
      <text x="8" y="45" class="text-label">Cliente:</text>
      <text x="220" y="45" class="text-data" text-anchor="end">OSWALDO BALTAZAR</text>
      
      <text x="8" y="60" class="text-label">Estado:</text>
      <text x="220" y="60" class="text-data" text-anchor="end">Pendiente</text>
      
      <text x="8" y="75" class="text-label">Acciones:</text>
      <rect x="140" y="65" width="40" height="14" class="button"/>
      <text x="160" y="75" class="button-text" text-anchor="middle">Ver</text>
      <rect x="185" y="65" width="40" height="14" fill="#f44336" rx="4"/>
      <text x="205" y="75" class="button-text" text-anchor="middle">Eliminar</text>
      
      <!-- Tarjeta 2 -->
      <rect x="0" y="90" width="230" height="80" class="card card-shadow"/>
      <text x="8" y="105" class="text-label">Numero:</text>
      <text x="220" y="105" class="text-data" text-anchor="end">SRV-2026-002</text>
      
      <text x="8" y="120" class="text-label">Fecha:</text>
      <text x="220" y="120" class="text-data" text-anchor="end">19/3/2026</text>
      
      <text x="8" y="135" class="text-label">Cliente:</text>
      <text x="220" y="135" class="text-data" text-anchor="end">MARIA GARCIA</text>
      
      <text x="8" y="150" class="text-label">Estado:</text>
      <text x="220" y="150" class="text-data" text-anchor="end">Completado</text>
      
      <text x="8" y="165" class="text-label">Acciones:</text>
      <rect x="140" y="155" width="40" height="14" class="button"/>
      <text x="160" y="165" class="button-text" text-anchor="middle">Ver</text>
      <rect x="185" y="155" width="40" height="14" fill="#f44336" rx="4"/>
      <text x="205" y="165" class="button-text" text-anchor="middle">Eliminar</text>
      
      <!-- Tarjeta 3 (parcial) -->
      <rect x="0" y="180" width="230" height="50" class="card card-shadow"/>
      <text x="8" y="195" class="text-label">Numero:</text>
      <text x="220" y="195" class="text-data" text-anchor="end">SRV-2026-001</text>
      
      <text x="8" y="210" class="text-label">Fecha:</text>
      <text x="220" y="210" class="text-data" text-anchor="end">18/3/2026</text>
      
      <text x="8" y="225" class="text-label">Cliente:</text>
      <text x="220" y="225" class="text-data" text-anchor="end">JUAN PEREZ</text>
    </g>
    
    <!-- Anotacion -->
    <text x="125" y="260" class="annotation" text-anchor="middle">Tarjetas con labels</text>
  </g>
  
  <!-- Leyenda de caracteristicas -->
  <g transform="translate(50, 420)">
    <text x="0" y="0" style="font-size: 16px; font-weight: bold; fill: #333;">Caracteristicas por dispositivo:</text>
    
    <!-- Laptop -->
    <g transform="translate(0, 30)">
      <rect x="0" y="0" width="400" height="180" fill="white" stroke="#ddd" stroke-width="1" rx="8"/>
      <text x="10" y="20" style="font-size: 14px; font-weight: bold; fill: #2192B8;">LAPTOP/DESKTOP (&gt;768px)</text>
      
      <text x="20" y="45" style="font-size: 11px; fill: #333;">✓ Tabla tradicional con todas las columnas</text>
      <text x="20" y="65" style="font-size: 11px; fill: #333;">✓ Headers visibles en la parte superior</text>
      <text x="20" y="85" style="font-size: 11px; fill: #333;">✓ Datos organizados en filas horizontales</text>
      <text x="20" y="105" style="font-size: 11px; fill: #333;">✓ Botones de accion en linea</text>
      <text x="20" y="125" style="font-size: 11px; fill: #333;">✓ Scroll horizontal si hay muchas columnas</text>
      <text x="20" y="145" style="font-size: 11px; fill: #333;">✓ Hover effects en filas</text>
      <text x="20" y="165" style="font-size: 11px; fill: #333;">✓ Maximo aprovechamiento del espacio</text>
    </g>
    
    <!-- Tablet -->
    <g transform="translate(430, 30)">
      <rect x="0" y="0" width="400" height="180" fill="white" stroke="#ddd" stroke-width="1" rx="8"/>
      <text x="10" y="20" style="font-size: 14px; font-weight: bold; fill: #2192B8;">TABLET (481-768px)</text>
      
      <text x="20" y="45" style="font-size: 11px; fill: #333;">✓ Tabla compacta con columnas reducidas</text>
      <text x="20" y="65" style="font-size: 11px; fill: #333;">✓ Headers visibles pero mas pequenos</text>
      <text x="20" y="85" style="font-size: 11px; fill: #333;">✓ Texto abreviado en algunas columnas</text>
      <text x="20" y="105" style="font-size: 11px; fill: #333;">✓ Botones apilados verticalmente</text>
      <text x="20" y="125" style="font-size: 11px; fill: #333;">✓ Fuente ligeramente mas pequena (12px)</text>
      <text x="20" y="145" style="font-size: 11px; fill: #333;">✓ Padding reducido en celdas</text>
      <text x="20" y="165" style="font-size: 11px; fill: #333;">✓ Scroll vertical optimizado</text>
    </g>
    
    <!-- Movil -->
    <g transform="translate(860, 30)">
      <rect x="0" y="0" width="400" height="180" fill="white" stroke="#ddd" stroke-width="1" rx="8"/>
      <text x="10" y="20" style="font-size: 14px; font-weight: bold; fill: #2192B8;">MOVIL (&lt;480px)</text>
      
      <text x="20" y="45" style="font-size: 11px; fill: #333;">✓ Tarjetas individuales con sombra</text>
      <text x="20" y="65" style="font-size: 11px; fill: #333;">✓ Headers ocultos (display: none)</text>
      <text x="20" y="85" style="font-size: 11px; fill: #333;">✓ Labels a la izquierda de cada dato</text>
      <text x="20" y="105" style="font-size: 11px; fill: #333;">✓ Datos alineados a la derecha</text>
      <text x="20" y="125" style="font-size: 11px; fill: #333;">✓ Botones adaptados al ancho disponible</text>
      <text x="20" y="145" style="font-size: 11px; fill: #333;">✓ Touch-friendly (areas tactiles grandes)</text>
      <text x="20" y="165" style="font-size: 11px; fill: #333;">✓ Scroll vertical suave</text>
    </g>
  </g>
  
  <!-- Breakpoints -->
  <g transform="translate(50, 650)">
    <text x="0" y="0" style="font-size: 16px; font-weight: bold; fill: #333;">Breakpoints CSS:</text>
    
    <rect x="0" y="15" width="1300" height="60" fill="#f9f9f9" stroke="#ddd" stroke-width="1" rx="6"/>
    
    <!-- Linea de breakpoints -->
    <line x1="50" y1="45" x2="1250" y2="45" stroke="#2192B8" stroke-width="3"/>
    
    <!-- Marcador 480px -->
    <circle cx="400" cy="45" r="6" fill="#FF5722"/>
    <line x1="400" y1="45" x2="400" y2="60" stroke="#FF5722" stroke-width="2"/>
    <text x="400" y="75" style="font-size: 12px; fill: #FF5722; font-weight: bold;" text-anchor="middle">480px</text>
    
    <!-- Marcador 768px -->
    <circle cx="650" cy="45" r="6" fill="#FF5722"/>
    <line x1="650" y1="45" x2="650" y2="60" stroke="#FF5722" stroke-width="2"/>
    <text x="650" y="75" style="font-size: 12px; fill: #FF5722; font-weight: bold;" text-anchor="middle">768px</text>
    
    <!-- Etiquetas de rangos -->
    <text x="225" y="40" style="font-size: 13px; fill: #2192B8; font-weight: bold;" text-anchor="middle">MOVIL</text>
    <text x="525" y="40" style="font-size: 13px; fill: #2192B8; font-weight: bold;" text-anchor="middle">TABLET</text>
    <text x="950" y="40" style="font-size: 13px; fill: #2192B8; font-weight: bold;" text-anchor="middle">LAPTOP/DESKTOP</text>
  </g>
  
  <!-- Nota final -->
  <text x="700" y="780" style="font-size: 12px; fill: #999; text-anchor: middle;">Los estilos se aplican automaticamente segun el ancho de la pantalla</text>
  <text x="700" y="800" style="font-size: 12px; fill: #999; text-anchor: middle;">No requiere JavaScript adicional - Todo manejado por CSS Media Queries</text>
  
</svg>