<svg xmlns="http://www.w3.org/2000/svg" viewBox="0 0 1100 1500">
  <defs>
    <style>
      .title { font: 600 22px 'Inter', 'Segoe UI', sans-serif; fill: #1a1a1a; letter-spacing: -0.5px; }
      .subtitle { font: 600 15px 'Inter', 'Segoe UI', sans-serif; fill: #2c3e50; letter-spacing: -0.3px; }
      .text { font: 400 13px 'Inter', 'Segoe UI', sans-serif; fill: #4a5568; }
      .small-text { font: 400 11px 'Inter', 'Segoe UI', sans-serif; fill: #718096; }
      .label { font: 500 12px 'Inter', 'Segoe UI', sans-serif; fill: #2d3748; text-transform: uppercase; letter-spacing: 0.5px; }
      .value { font: 600 20px 'Inter', 'Segoe UI', sans-serif; }
      .input-text { font: 400 13px 'Inter', 'Segoe UI', sans-serif; fill: #2d3748; }
      
      /* Sombras empresariales */
      .shadow-card { filter: drop-shadow(0 1px 3px rgba(0,0,0,0.12)) drop-shadow(0 1px 2px rgba(0,0,0,0.08)); }
      .shadow-lg { filter: drop-shadow(0 10px 25px rgba(0,0,0,0.15)); }
      
      /* Líneas y bordes */
      .divider { stroke: #e2e8f0; stroke-width: 1; }

      /* Iconos */
      .icon-stroke { fill: none; stroke-width: 2; stroke-linecap: round; stroke-linejoin: round; }
    </style>
    
    <!-- Gradientes corporativos sutiles -->
    <linearGradient id="gradHeader" x1="0%" y1="0%" x2="100%" y2="0%">
      <stop offset="0%" style="stop-color:#1e293b;stop-opacity:1" />
      <stop offset="100%" style="stop-color:#334155;stop-opacity:1" />
    </linearGradient>
    
    <linearGradient id="gradSuccess" x1="0%" y1="0%" x2="0%" y2="100%">
      <stop offset="0%" style="stop-color:#10b981;stop-opacity:0.1" />
      <stop offset="100%" style="stop-color:#059669;stop-opacity:0.05" />
    </linearGradient>
    
    <linearGradient id="gradWarning" x1="0%" y1="0%" x2="0%" y2="100%">
      <stop offset="0%" style="stop-color:#f59e0b;stop-opacity:0.1" />
      <stop offset="100%" style="stop-color:#d97706;stop-opacity:0.05" />
    </linearGradient>
    
    <linearGradient id="gradDanger" x1="0%" y1="0%" x2="0%" y2="100%">
      <stop offset="0%" style="stop-color:#ef4444;stop-opacity:0.1" />
      <stop offset="100%" style="stop-color:#dc2626;stop-opacity:0.05" />
    </linearGradient>
    
    <!-- Patrón de líneas sutiles -->
    <pattern id="lines" x="0" y="0" width="40" height="40" patternUnits="userSpaceOnUse">
      <line x1="0" y1="0" x2="40" y2="40" stroke="#f1f5f9" stroke-width="0.5"/>
    </pattern>
  </defs>

  <!-- Fondo corporativo -->
  <rect width="1100" height="1500" fill="#f8fafc"/>
  <rect width="1100" height="1500" fill="url(#lines)" opacity="0.3"/>

  <!-- Marca de agua corporativa -->
  <text x="550" y="750" text-anchor="middle" style="font: bold 120px sans-serif; fill: #f1f5f9; opacity: 0.3;">DOCTOR PC</text>

  <!-- Título principal -->
  <text x="550" y="50" text-anchor="middle" class="title">SISTEMA DE GESTIÓN DE ENTREGAS</text>
  <line x1="400" y1="60" x2="700" y2="60" stroke="#cbd5e1" stroke-width="2"/>
  <text x="550" y="80" text-anchor="middle" class="small-text">Módulo de Control Financiero y Deudas</text>

  <!-- Modal Container con sombra empresarial -->
  <g class="shadow-lg">
    <rect x="150" y="120" width="800" height="1320" rx="8" fill="#ffffff" stroke="#e2e8f0" stroke-width="1"/>
  </g>

  <!-- Header corporativo -->
  <rect x="150" y="120" width="800" height="60" rx="8" fill="url(#gradHeader)"/>
  <rect x="150" y="155" width="800" height="25" fill="#1e293b"/>
  
  <!-- Icono Package (Lucide) en header -->
  <rect x="175" y="138" width="35" height="35" rx="4" fill="rgba(255,255,255,0.1)" stroke="rgba(255,255,255,0.2)" stroke-width="1"/>
  <g transform="translate(181, 143)">
    <path d="M12.5 3.5L21 8v12l-8.5 4.5L4 20V8l8.5-4.5z" class="icon-stroke" stroke="#fff" transform="scale(0.9)"/>
    <path d="M4 8l8.5 4.5L21 8" class="icon-stroke" stroke="#fff" transform="scale(0.9)"/>
    <line x1="11.25" y1="11.25" x2="11.25" y2="22" class="icon-stroke" stroke="#fff" transform="scale(0.9)"/>
    <line x1="8" y1="5.5" x2="16.5" y2="10" class="icon-stroke" stroke="rgba(255,255,255,0.5)" transform="scale(0.9)"/>
  </g>
  <text x="225" y="157" style="font: 600 18px 'Inter', sans-serif; fill: #fff; letter-spacing: -0.5px;">Entrega de Servicio</text>
  <text x="225" y="172" style="font: 400 11px 'Inter', sans-serif; fill: #94a3b8;">Control de Deuda Integrado</text>
  
  <!-- Botón cerrar minimalista (X icon Lucide) -->
  <rect x="905" y="138" width="30" height="30" rx="4" fill="rgba(255,255,255,0.1)"/>
  <g transform="translate(910, 143)">
    <line x1="4" y1="4" x2="16" y2="16" class="icon-stroke" stroke="#fff"/>
    <line x1="16" y1="4" x2="4" y2="16" class="icon-stroke" stroke="#fff"/>
  </g>

  <!-- Línea divisoria -->
  <line x1="150" y1="180" x2="950" y2="180" class="divider"/>

  <!-- ═══════════════════════════════════════════ -->
  <!-- SECCIÓN 1: Información del Servicio        -->
  <!-- ═══════════════════════════════════════════ -->
  <g class="shadow-card">
    <rect x="175" y="205" width="750" height="95" rx="6" fill="#fafafa" stroke="#e2e8f0" stroke-width="1"/>
  </g>
  
  <rect x="175" y="205" width="4" height="95" rx="2" fill="#64748b"/>

  <!-- Icono Clipboard (Lucide) + título sección -->
  <g transform="translate(195, 213)">
    <rect x="5" y="0" width="10" height="3" rx="1" class="icon-stroke" stroke="#64748b"/>
    <rect x="2" y="2" width="16" height="16" rx="2" class="icon-stroke" stroke="#64748b"/>
    <line x1="6" y1="8" x2="14" y2="8" class="icon-stroke" stroke="#64748b"/>
    <line x1="6" y1="12" x2="14" y2="12" class="icon-stroke" stroke="#64748b"/>
  </g>
  <text x="220" y="228" class="label" fill="#64748b">Información del Servicio</text>
  
  <!-- Grid empresarial -->
  <line x1="195" y1="240" x2="905" y2="240" stroke="#e2e8f0" stroke-width="1"/>
  
  <!-- Icono Hash -->
  <g transform="translate(195, 250)">
    <line x1="3" y1="0" x2="1" y2="12" class="icon-stroke" stroke="#94a3b8" stroke-width="1.5"/>
    <line x1="9" y1="0" x2="7" y2="12" class="icon-stroke" stroke="#94a3b8" stroke-width="1.5"/>
    <line x1="0" y1="4" x2="11" y2="4" class="icon-stroke" stroke="#94a3b8" stroke-width="1.5"/>
    <line x1="0" y1="8" x2="11" y2="8" class="icon-stroke" stroke="#94a3b8" stroke-width="1.5"/>
  </g>
  <text x="212" y="260" class="small-text">N° Servicio</text>
  <text x="212" y="280" style="font: 600 16px 'Inter', sans-serif; fill: #1e293b;">SRV-2024-001</text>
  
  <!-- Icono User -->
  <g transform="translate(380, 249)">
    <circle cx="6" cy="3.5" r="3" class="icon-stroke" stroke="#94a3b8" stroke-width="1.5"/>
    <path d="M0 13c0-3.3 2.7-6 6-6s6 2.7 6 6" class="icon-stroke" stroke="#94a3b8" stroke-width="1.5"/>
  </g>
  <text x="397" y="260" class="small-text">Cliente</text>
  <text x="397" y="280" style="font: 500 14px 'Inter', sans-serif; fill: #334155;">Juan Pérez Gómez</text>
  
  <!-- Icono CreditCard / ID -->
  <g transform="translate(620, 249)">
    <rect x="0" y="1" width="14" height="10" rx="2" class="icon-stroke" stroke="#94a3b8" stroke-width="1.5"/>
    <line x1="0" y1="5" x2="14" y2="5" class="icon-stroke" stroke="#94a3b8" stroke-width="1.5"/>
  </g>
  <text x="639" y="260" class="small-text">DNI</text>
  <text x="639" y="280" style="font: 500 14px 'Inter', sans-serif; fill: #334155;">12345678</text>
  
  <!-- Icono Calendar -->
  <g transform="translate(750, 248)">
    <rect x="0" y="2" width="14" height="12" rx="2" class="icon-stroke" stroke="#94a3b8" stroke-width="1.5"/>
    <line x1="0" y1="6" x2="14" y2="6" class="icon-stroke" stroke="#94a3b8" stroke-width="1.5"/>
    <line x1="4" y1="0" x2="4" y2="4" class="icon-stroke" stroke="#94a3b8" stroke-width="1.5"/>
    <line x1="10" y1="0" x2="10" y2="4" class="icon-stroke" stroke="#94a3b8" stroke-width="1.5"/>
  </g>
  <text x="769" y="260" class="small-text">Fecha</text>
  <text x="769" y="280" style="font: 500 14px 'Inter', sans-serif; fill: #334155;">07/04/2026</text>

  <!-- ═══════════════════════════════════════════ -->
  <!-- SECCIÓN 2: Resumen Financiero              -->
  <!-- ═══════════════════════════════════════════ -->
  
  <!-- Icono DollarSign + título sección -->
  <g transform="translate(175, 320)">
    <line x1="7" y1="0" x2="7" y2="16" class="icon-stroke" stroke="#64748b" stroke-width="1.5"/>
    <path d="M11 3H5.5a2.5 2.5 0 000 5h3a2.5 2.5 0 010 5H3" class="icon-stroke" stroke="#64748b" stroke-width="1.5"/>
  </g>
  <text x="195" y="335" class="label" fill="#64748b">Resumen Financiero</text>
  <line x1="175" y1="345" x2="925" y2="345" stroke="#e2e8f0" stroke-width="1"/>

  <!-- Tarjeta: Monto Total -->
  <g class="shadow-card">
    <rect x="175" y="360" width="240" height="100" rx="6" fill="#ffffff" stroke="#e2e8f0" stroke-width="1"/>
  </g>
  <rect x="175" y="360" width="240" height="3" rx="1.5" fill="#10b981"/>
  <!-- Icono Wallet -->
  <g transform="translate(190, 375)">
    <rect x="0" y="2" width="18" height="13" rx="2" class="icon-stroke" stroke="#6b7280" stroke-width="1.5"/>
    <path d="M0 6h18" class="icon-stroke" stroke="#6b7280" stroke-width="1.5"/>
    <circle cx="14" cy="11" r="1" fill="#6b7280"/>
  </g>
  <text x="213" y="388" class="small-text" fill="#6b7280">MONTO TOTAL</text>
  <text x="190" y="420" style="font: 700 28px 'Inter', sans-serif; fill: #1e293b;">S/ 480.00</text>
  <!-- Icono CheckCircle mini -->
  <g transform="translate(190, 436)">
    <circle cx="5" cy="5" r="5" class="icon-stroke" stroke="#10b981" stroke-width="1.5"/>
    <path d="M3 5l2 2 4-4" class="icon-stroke" stroke="#10b981" stroke-width="1.5"/>
  </g>
  <text x="204" y="445" class="small-text" fill="#10b981">Servicio completo</text>

  <!-- Tarjeta: Pagado -->
  <g class="shadow-card">
    <rect x="430" y="360" width="240" height="100" rx="6" fill="#ffffff" stroke="#e2e8f0" stroke-width="1"/>
  </g>
  <rect x="430" y="360" width="240" height="3" rx="1.5" fill="#3b82f6"/>
  <!-- Icono Banknote -->
  <g transform="translate(445, 375)">
    <rect x="0" y="2" width="18" height="12" rx="2" class="icon-stroke" stroke="#6b7280" stroke-width="1.5"/>
    <circle cx="9" cy="8" r="2.5" class="icon-stroke" stroke="#6b7280" stroke-width="1.5"/>
    <line x1="2" y1="8" x2="2" y2="8.01" class="icon-stroke" stroke="#6b7280" stroke-width="2"/>
    <line x1="16" y1="8" x2="16" y2="8.01" class="icon-stroke" stroke="#6b7280" stroke-width="2"/>
  </g>
  <text x="468" y="388" class="small-text" fill="#6b7280">PAGADO</text>
  <text x="445" y="420" style="font: 700 28px 'Inter', sans-serif; fill: #1e293b;">S/ 120.00</text>
  <!-- Icono ArrowDownCircle mini -->
  <g transform="translate(445, 436)">
    <circle cx="5" cy="5" r="5" class="icon-stroke" stroke="#3b82f6" stroke-width="1.5"/>
    <line x1="5" y1="2.5" x2="5" y2="7.5" class="icon-stroke" stroke="#3b82f6" stroke-width="1.5"/>
    <path d="M3 5.5l2 2 2-2" class="icon-stroke" stroke="#3b82f6" stroke-width="1.5"/>
  </g>
  <text x="459" y="445" class="small-text" fill="#3b82f6">Adelanto inicial</text>

  <!-- Tarjeta: Saldo Pendiente -->
  <g class="shadow-card">
    <rect x="685" y="360" width="240" height="100" rx="6" fill="#ffffff" stroke="#e2e8f0" stroke-width="1"/>
  </g>
  <rect x="685" y="360" width="240" height="3" rx="1.5" fill="#ef4444"/>
  <!-- Icono AlertTriangle -->
  <g transform="translate(700, 374)">
    <path d="M8.5 1L17 15H0L8.5 1z" class="icon-stroke" stroke="#6b7280" stroke-width="1.5"/>
    <line x1="8.5" y1="6" x2="8.5" y2="9" class="icon-stroke" stroke="#6b7280" stroke-width="1.5"/>
    <line x1="8.5" y1="12" x2="8.5" y2="12.01" class="icon-stroke" stroke="#6b7280" stroke-width="2"/>
  </g>
  <text x="723" y="388" class="small-text" fill="#6b7280">SALDO PENDIENTE</text>
  <text x="700" y="420" style="font: 700 28px 'Inter', sans-serif; fill: #ef4444;">S/ 360.00</text>
  <!-- Icono Clock mini -->
  <g transform="translate(700, 436)">
    <circle cx="5" cy="5" r="5" class="icon-stroke" stroke="#ef4444" stroke-width="1.5"/>
    <line x1="5" y1="2.5" x2="5" y2="5.5" class="icon-stroke" stroke="#ef4444" stroke-width="1.5"/>
    <line x1="5" y1="5.5" x2="7" y2="7" class="icon-stroke" stroke="#ef4444" stroke-width="1.5"/>
  </g>
  <text x="714" y="445" class="small-text" fill="#ef4444">Por cobrar</text>

  <!-- ═══════════════════════════════════════════ -->
  <!-- SECCIÓN 3: Pago al Momento de Entrega      -->
  <!-- ═══════════════════════════════════════════ -->

  <!-- Icono CreditCard + título sección -->
  <g transform="translate(175, 485)">
    <rect x="0" y="1" width="18" height="13" rx="2" class="icon-stroke" stroke="#64748b" stroke-width="1.5"/>
    <line x1="0" y1="6" x2="18" y2="6" class="icon-stroke" stroke="#64748b" stroke-width="1.5"/>
    <line x1="3" y1="10" x2="7" y2="10" class="icon-stroke" stroke="#64748b" stroke-width="1.5"/>
  </g>
  <text x="198" y="500" class="label" fill="#64748b">Pago al Momento de Entrega</text>
  <line x1="175" y1="510" x2="925" y2="510" stroke="#e2e8f0" stroke-width="1"/>

  <g class="shadow-card">
    <rect x="175" y="525" width="365" height="75" rx="6" fill="#ffffff" stroke="#cbd5e1" stroke-width="1"/>
  </g>
  <text x="190" y="545" class="label" fill="#475569">Monto a Cobrar Hoy</text>
  <rect x="190" y="555" width="335" height="35" rx="4" fill="#f8fafc" stroke="#10b981" stroke-width="2"/>
  <text x="205" y="580" style="font: 600 18px 'Inter', sans-serif; fill: #1e293b;">360.00</text>
  <!-- Icono Check + texto -->
  <g transform="translate(478, 570)">
    <path d="M2 5l3 3 6-6" class="icon-stroke" stroke="#10b981" stroke-width="2"/>
  </g>
  <text x="500" y="580" class="small-text" fill="#10b981" text-anchor="end">Saldo completo</text>

  <g class="shadow-card">
    <rect x="560" y="525" width="365" height="75" rx="6" fill="#ffffff" stroke="#cbd5e1" stroke-width="1"/>
  </g>
  <text x="575" y="545" class="label" fill="#475569">Método de Pago</text>
  <rect x="575" y="555" width="335" height="35" rx="4" fill="#f8fafc" stroke="#cbd5e1" stroke-width="1"/>
  <!-- Icono Banknote mini en input -->
  <g transform="translate(582, 566)">
    <rect x="0" y="1" width="14" height="9" rx="1.5" class="icon-stroke" stroke="#94a3b8" stroke-width="1.2"/>
    <circle cx="7" cy="5.5" r="1.8" class="icon-stroke" stroke="#94a3b8" stroke-width="1.2"/>
  </g>
  <text x="601" y="580" class="input-text">Efectivo</text>
  <!-- Icono ChevronDown SVG -->
  <g transform="translate(885, 568)">
    <path d="M1 3l5 5 5-5" class="icon-stroke" stroke="#94a3b8" stroke-width="2"/>
  </g>

  <!-- Indicador de estado empresarial -->
  <g class="shadow-card">
    <rect x="175" y="620" width="750" height="55" rx="6" fill="url(#gradSuccess)" stroke="#10b981" stroke-width="1"/>
  </g>
  <rect x="175" y="620" width="5" height="55" rx="2.5" fill="#10b981"/>
  <!-- Icono ShieldCheck (Lucide) -->
  <circle cx="210" cy="647.5" r="16" fill="#10b981"/>
  <g transform="translate(198, 636)">
    <path d="M12 2l7 3.5v5c0 4.7-3 8.3-7 10-4-1.7-7-5.3-7-10v-5L12 2z" class="icon-stroke" stroke="#fff" stroke-width="1.8" transform="scale(0.7) translate(4,3)"/>
    <path d="M6.5 11l2.5 2.5 5-5" class="icon-stroke" stroke="#fff" stroke-width="2"/>
  </g>
  <text x="240" y="646" style="font: 600 16px 'Inter', sans-serif; fill: #065f46;">DEUDA SALDADA</text>
  <text x="240" y="665" class="small-text" fill="#059669">El cliente no tendrá saldo pendiente</text>

  <!-- ═══════════════════════════════════════════ -->
  <!-- SECCIÓN 4: Datos de Entrega                -->
  <!-- ═══════════════════════════════════════════ -->
  
  <!-- Icono Truck + título sección -->
  <g transform="translate(175, 700)">
    <rect x="0" y="2" width="13" height="9" rx="1" class="icon-stroke" stroke="#64748b" stroke-width="1.5"/>
    <path d="M13 5h3l3 4v2h-6V5z" class="icon-stroke" stroke="#64748b" stroke-width="1.5"/>
    <circle cx="5.5" cy="13.5" r="2" class="icon-stroke" stroke="#64748b" stroke-width="1.5"/>
    <circle cx="16" cy="13.5" r="2" class="icon-stroke" stroke="#64748b" stroke-width="1.5"/>
  </g>
  <text x="198" y="715" class="label" fill="#64748b">Datos de Entrega</text>
  <line x1="175" y1="725" x2="925" y2="725" stroke="#e2e8f0" stroke-width="1"/>

  <!-- Grid 2x2 empresarial -->
  <g class="shadow-card">
    <rect x="175" y="740" width="365" height="65" rx="6" fill="#ffffff" stroke="#cbd5e1" stroke-width="1"/>
  </g>
  <!-- Icono Calendar mini -->
  <g transform="translate(190, 749)">
    <rect x="0" y="2" width="12" height="10" rx="1.5" class="icon-stroke" stroke="#475569" stroke-width="1.2"/>
    <line x1="0" y1="5.5" x2="12" y2="5.5" class="icon-stroke" stroke="#475569" stroke-width="1.2"/>
    <line x1="3" y1="0" x2="3" y2="3.5" class="icon-stroke" stroke="#475569" stroke-width="1.2"/>
    <line x1="9" y1="0" x2="9" y2="3.5" class="icon-stroke" stroke="#475569" stroke-width="1.2"/>
  </g>
  <text x="207" y="760" class="label" fill="#475569">Fecha de Entrega *</text>
  <rect x="190" y="768" width="335" height="28" rx="4" fill="#f8fafc" stroke="#cbd5e1" stroke-width="1"/>
  <text x="205" y="788" class="input-text">07/04/2026</text>

  <g class="shadow-card">
    <rect x="560" y="740" width="365" height="65" rx="6" fill="#ffffff" stroke="#cbd5e1" stroke-width="1"/>
  </g>
  <!-- Icono Clock mini -->
  <g transform="translate(575, 749)">
    <circle cx="6" cy="6" r="6" class="icon-stroke" stroke="#475569" stroke-width="1.2"/>
    <line x1="6" y1="3" x2="6" y2="6.5" class="icon-stroke" stroke="#475569" stroke-width="1.2"/>
    <line x1="6" y1="6.5" x2="8.5" y2="8" class="icon-stroke" stroke="#475569" stroke-width="1.2"/>
  </g>
  <text x="592" y="760" class="label" fill="#475569">Hora de Entrega *</text>
  <rect x="575" y="768" width="335" height="28" rx="4" fill="#f8fafc" stroke="#cbd5e1" stroke-width="1"/>
  <text x="590" y="788" class="input-text">16:40</text>

  <g class="shadow-card">
    <rect x="175" y="820" width="365" height="65" rx="6" fill="#ffffff" stroke="#cbd5e1" stroke-width="1"/>
  </g>
  <!-- Icono UserCheck mini -->
  <g transform="translate(190, 829)">
    <circle cx="5" cy="3.5" r="3" class="icon-stroke" stroke="#475569" stroke-width="1.2"/>
    <path d="M0 13c0-3 2.2-5.5 5-5.5s5 2.5 5 5.5" class="icon-stroke" stroke="#475569" stroke-width="1.2"/>
    <path d="M12 6l1.5 1.5 3-3" class="icon-stroke" stroke="#475569" stroke-width="1.5"/>
  </g>
  <text x="207" y="840" class="label" fill="#475569">Encargado de Entrega *</text>
  <rect x="190" y="848" width="335" height="28" rx="4" fill="#f8fafc" stroke="#cbd5e1" stroke-width="1"/>
  <text x="205" y="868" class="input-text">Jesús Lucero</text>

  <g class="shadow-card">
    <rect x="560" y="820" width="365" height="65" rx="6" fill="#ffffff" stroke="#cbd5e1" stroke-width="1"/>
  </g>
  <!-- Icono Monitor/Settings mini -->
  <g transform="translate(575, 829)">
    <rect x="1" y="0" width="14" height="9" rx="1.5" class="icon-stroke" stroke="#475569" stroke-width="1.2"/>
    <line x1="8" y1="9" x2="8" y2="13" class="icon-stroke" stroke="#475569" stroke-width="1.2"/>
    <line x1="4" y1="13" x2="12" y2="13" class="icon-stroke" stroke="#475569" stroke-width="1.2"/>
  </g>
  <text x="592" y="840" class="label" fill="#475569">Estado del Equipo *</text>
  <rect x="575" y="848" width="335" height="28" rx="4" fill="#f8fafc" stroke="#cbd5e1" stroke-width="1"/>
  <text x="590" y="868" class="input-text">Funcionando correctamente</text>
  <!-- Icono ChevronDown SVG -->
  <g transform="translate(885, 856)">
    <path d="M1 3l5 5 5-5" class="icon-stroke" stroke="#94a3b8" stroke-width="2"/>
  </g>

  <g class="shadow-card">
    <rect x="175" y="900" width="750" height="65" rx="6" fill="#ffffff" stroke="#cbd5e1" stroke-width="1"/>
  </g>
  <!-- Icono MessageSquare mini -->
  <g transform="translate(190, 909)">
    <path d="M0 2a2 2 0 012-2h10a2 2 0 012 2v7a2 2 0 01-2 2H5l-3 3V2z" class="icon-stroke" stroke="#475569" stroke-width="1.2"/>
  </g>
  <text x="207" y="920" class="label" fill="#475569">Observaciones de Entrega</text>
  <rect x="190" y="928" width="720" height="28" rx="4" fill="#f8fafc" stroke="#cbd5e1" stroke-width="1"/>
  <text x="205" y="948" class="small-text" fill="#94a3b8">Anotar cualquier detalle importante...</text>

  <!-- ═══════════════════════════════════════════ -->
  <!-- SECCIÓN 5: Documentación                   -->
  <!-- ═══════════════════════════════════════════ -->
  
  <!-- Icono FileText + título sección -->
  <g transform="translate(175, 990)">
    <path d="M13 0H4a2 2 0 00-2 2v14a2 2 0 002 2h10a2 2 0 002-2V5L13 0z" class="icon-stroke" stroke="#64748b" stroke-width="1.5"/>
    <path d="M13 0v5h3" class="icon-stroke" stroke="#64748b" stroke-width="1.5"/>
    <line x1="6" y1="10" x2="12" y2="10" class="icon-stroke" stroke="#64748b" stroke-width="1.5"/>
    <line x1="6" y1="14" x2="12" y2="14" class="icon-stroke" stroke="#64748b" stroke-width="1.5"/>
  </g>
  <text x="198" y="1005" class="label" fill="#64748b">Documentación y Garantía</text>
  <line x1="175" y1="1015" x2="925" y2="1015" stroke="#e2e8f0" stroke-width="1"/>

  <g class="shadow-card">
    <rect x="175" y="1030" width="365" height="65" rx="6" fill="#ffffff" stroke="#cbd5e1" stroke-width="1"/>
  </g>
  <!-- Icono Shield mini -->
  <g transform="translate(190, 1039)">
    <path d="M6 0l6 3v4.5c0 3.5-2.5 6.3-6 7.5-3.5-1.2-6-4-6-7.5V3L6 0z" class="icon-stroke" stroke="#475569" stroke-width="1.2"/>
    <path d="M3.5 7l2 2 4-4" class="icon-stroke" stroke="#475569" stroke-width="1.2"/>
  </g>
  <text x="207" y="1050" class="label" fill="#475569">Garantía Hasta</text>
  <rect x="190" y="1058" width="335" height="28" rx="4" fill="#f8fafc" stroke="#cbd5e1" stroke-width="1"/>
  <text x="205" y="1078" class="input-text">07/05/2026</text>

  <g class="shadow-card">
    <rect x="560" y="1030" width="365" height="65" rx="6" fill="#ffffff" stroke="#cbd5e1" stroke-width="1"/>
  </g>
  <!-- Icono Receipt mini -->
  <g transform="translate(575, 1039)">
    <path d="M1 0v15l2-1.5 2 1.5 2-1.5 2 1.5 2-1.5 2 1.5V0H1z" class="icon-stroke" stroke="#475569" stroke-width="1.2"/>
    <line x1="4" y1="4" x2="10" y2="4" class="icon-stroke" stroke="#475569" stroke-width="1.2"/>
    <line x1="4" y1="7" x2="10" y2="7" class="icon-stroke" stroke="#475569" stroke-width="1.2"/>
    <line x1="4" y1="10" x2="7" y2="10" class="icon-stroke" stroke="#475569" stroke-width="1.2"/>
  </g>
  <text x="592" y="1050" class="label" fill="#475569">Comprobante/Referencia</text>
  <rect x="575" y="1058" width="335" height="28" rx="4" fill="#f8fafc" stroke="#cbd5e1" stroke-width="1"/>
  <text x="590" y="1078" class="input-text">N° 001-2024</text>

  <g class="shadow-card">
    <rect x="175" y="1110" width="750" height="65" rx="6" fill="#ffffff" stroke="#cbd5e1" stroke-width="1"/>
  </g>
  <!-- Icono Lightbulb mini -->
  <g transform="translate(190, 1119)">
    <path d="M3 8a5 5 0 1110 0c0 2-1.5 3-2 4.5H5C4.5 11 3 10 3 8z" class="icon-stroke" stroke="#475569" stroke-width="1.2"/>
    <line x1="5" y1="14" x2="11" y2="14" class="icon-stroke" stroke="#475569" stroke-width="1.2"/>
    <line x1="6" y1="16" x2="10" y2="16" class="icon-stroke" stroke="#475569" stroke-width="1.2"/>
  </g>
  <text x="207" y="1130" class="label" fill="#475569">Recomendaciones al Cliente</text>
  <rect x="190" y="1138" width="720" height="28" rx="4" fill="#f8fafc" stroke="#cbd5e1" stroke-width="1"/>
  <text x="205" y="1158" class="input-text">Mantenimiento preventivo cada 6 meses</text>

  <!-- Línea divisoria final -->
  <line x1="175" y1="1200" x2="925" y2="1200" stroke="#e2e8f0" stroke-width="1"/>

  <!-- ═══════════════════════════════════════════ -->
  <!-- Botones empresariales                      -->
  <!-- ═══════════════════════════════════════════ -->
  <g class="shadow-card">
    <rect x="175" y="1220" width="365" height="50" rx="6" fill="#ffffff" stroke="#cbd5e1" stroke-width="1"/>
  </g>
  <!-- Icono Eye -->
  <g transform="translate(325, 1237)">
    <path d="M0 7s4-7 10-7 10 7 10 7-4 7-10 7S0 7 0 7z" class="icon-stroke" stroke="#475569" stroke-width="1.5" transform="scale(0.7)"/>
    <circle cx="7" cy="7" r="2" class="icon-stroke" stroke="#475569" stroke-width="1.5" transform="scale(0.7)"/>
  </g>
  <text x="345" y="1250" style="font: 500 14px 'Inter', sans-serif; fill: #475569; letter-spacing: 0.3px;">REVISAR DATOS</text>

  <g class="shadow-card">
    <rect x="560" y="1220" width="365" height="50" rx="6" fill="#1e293b"/>
  </g>
  <!-- Icono Check -->
  <g transform="translate(698, 1237)">
    <path d="M2 6l4 4 8-8" class="icon-stroke" stroke="#fff" stroke-width="2.5"/>
  </g>
  <text x="718" y="1250" style="font: 600 14px 'Inter', sans-serif; fill: #fff; letter-spacing: 0.3px;">CONFIRMAR ENTREGA</text>

  <!-- ═══════════════════════════════════════════ -->
  <!-- Footer corporativo                         -->
  <!-- ═══════════════════════════════════════════ -->
  <rect x="175" y="1290" width="750" height="130" rx="6" fill="#f8fafc" stroke="#e2e8f0" stroke-width="1"/>
  <!-- Icono Activity + título -->
  <g transform="translate(190, 1301)">
    <path d="M0 7h4l2-5 3 10 2-5h4" class="icon-stroke" stroke="#64748b" stroke-width="1.5"/>
  </g>
  <text x="210" y="1315" class="label" fill="#64748b">Indicadores de Estado</text>
  <line x1="190" y1="1325" x2="910" y2="1325" stroke="#e2e8f0" stroke-width="1"/>

  <!-- Estado: Deuda Saldada -->
  <rect x="190" y="1340" width="230" height="45" rx="4" fill="#ffffff" stroke="#10b981" stroke-width="1"/>
  <!-- Icono ShieldCheck -->
  <g transform="translate(200, 1350)">
    <path d="M6 0l6 3v4.5c0 3.5-2.5 6.3-6 7.5-3.5-1.2-6-4-6-7.5V3L6 0z" class="icon-stroke" stroke="#10b981" stroke-width="1.5"/>
    <path d="M3.5 7l2 2 4-4" class="icon-stroke" stroke="#10b981" stroke-width="1.5"/>
  </g>
  <text x="220" y="1367" style="font: 500 12px 'Inter', sans-serif; fill: #065f46;">Deuda Saldada</text>

  <!-- Estado: Pago Parcial -->
  <rect x="435" y="1340" width="230" height="45" rx="4" fill="#ffffff" stroke="#f59e0b" stroke-width="1"/>
  <!-- Icono AlertTriangle -->
  <g transform="translate(445, 1350)">
    <path d="M6.5 1L13 13H0L6.5 1z" class="icon-stroke" stroke="#f59e0b" stroke-width="1.5"/>
    <line x1="6.5" y1="5.5" x2="6.5" y2="8" class="icon-stroke" stroke="#f59e0b" stroke-width="1.5"/>
    <line x1="6.5" y1="10" x2="6.5" y2="10.01" class="icon-stroke" stroke="#f59e0b" stroke-width="2"/>
  </g>
  <text x="465" y="1367" style="font: 500 12px 'Inter', sans-serif; fill: #92400e;">Pago Parcial</text>

  <!-- Estado: Deuda Pendiente -->
  <rect x="680" y="1340" width="230" height="45" rx="4" fill="#ffffff" stroke="#ef4444" stroke-width="1"/>
  <!-- Icono AlertCircle -->
  <g transform="translate(690, 1350)">
    <circle cx="6.5" cy="6.5" r="6.5" class="icon-stroke" stroke="#ef4444" stroke-width="1.5"/>
    <line x1="6.5" y1="4" x2="6.5" y2="7.5" class="icon-stroke" stroke="#ef4444" stroke-width="1.5"/>
    <line x1="6.5" y1="10" x2="6.5" y2="10.01" class="icon-stroke" stroke="#ef4444" stroke-width="2"/>
  </g>
  <text x="710" y="1367" style="font: 500 12px 'Inter', sans-serif; fill: #991b1b;">Deuda Pendiente</text>

  <!-- Nota legal -->
  <text x="550" y="1410" text-anchor="middle" class="small-text" fill="#94a3b8">
    * Campos obligatorios | Sistema de gestión integrado v2.0
  </text>
  
  <!-- Marca corporativa -->
  <text x="550" y="1430" text-anchor="middle" style="font: 600 10px 'Inter', sans-serif; fill: #cbd5e1; letter-spacing: 2px;">
    DOCTOR PC © 2024
  </text>
</svg>
